<?xml version="1.0" encoding="utf-8"?>
<!-- Generator: Adobe Illustrator 26.3.1, SVG Export Plug-In . SVG Version: 6.00 Build 0)  -->
<svg version="1.1" id="Lager_1" xmlns="http://www.w3.org/2000/svg" xmlns:xlink="http://www.w3.org/1999/xlink" x="0px" y="0px"
	 viewBox="0 0 512 512" style="enable-background:new 0 0 512 512;" xml:space="preserve">
<style type="text/css">
	.st0{fill:#FFB600;}
</style>
<path class="st0" d="M32,400c0,26.5,21.5,48,48,48h416c8.8,0,16,7.2,16,16s-7.2,16-16,16H80c-44.2,0-80-35.8-80-80V48
	c0-8.8,7.2-16,16-16c8.8,0,16,7.2,16,16V400z M336,128h128c8.8,0,16,7.2,16,16v128c0,8.8-7.2,16-16,16s-16-7.2-16-16v-89.4
	L331.3,299.3c-6.2,6.3-16.4,6.3-22.6,0l-85.6-84.7l-99.8,100.7c-6.2,6.3-16.4,6.3-22.6,0c-6.3-6.2-6.3-16.4,0-22.6l112-112
	c6.2-6.3,16.4-6.3,22.6,0l84.7,84.7L425.4,160H336c-8.8,0-16-7.2-16-16S327.2,128,336,128L336,128z"/>
</svg>
