<?xml version="1.0" encoding="utf-8"?>
<!-- Generator: Adobe Illustrator 26.3.1, SVG Export Plug-In . SVG Version: 6.00 Build 0)  -->
<svg version="1.1" id="Lager_1" xmlns="http://www.w3.org/2000/svg" xmlns:xlink="http://www.w3.org/1999/xlink" x="0px" y="0px"
	 viewBox="0 0 512 512" style="enable-background:new 0 0 512 512;" xml:space="preserve">
<style type="text/css">
	.st0{fill:#FFB600;}
</style>
<path class="st0" d="M466.5,83.7l-192-80C268.6,1.2,262.3,0,256.1,0s-12.6,1.2-18.5,3.7l-192,80C27.7,91.1,16,108.6,16,127.1
	C16,385.4,205.4,512,255.9,512C305.2,512,496,387.3,496,127.1C496,108.6,484.3,91.1,466.5,83.7z M463.9,128.3
	c0,225.3-166.2,351.7-207.8,351.7C213.3,479.1,48,352.2,48,128c0-6.5,3.9-12.2,9.8-14.8l192-80c2-0.8,4.1-1.3,6.3-1.3
	c2.1,0,4.2,0.4,6.1,1.3l192,80C463.3,117.1,463.9,125.8,463.9,128.3z M336,181.3c-4.1,0-8.2,1.6-11.3,4.7l-95.4,95.4l-42-42
	c-3.1-3.2-7.2-4.7-11.3-4.7c-9.1,0-16,7.5-16,16c0,4.1,1.6,8.2,4.7,11.3l53.3,53.3c3.2,3.1,7.3,4.7,11.3,4.7s8.2-1.6,11.3-4.7
	l106.7-106.7c3.1-3.1,4.7-7.2,4.7-11.3C352,188.8,345.1,181.3,336,181.3z"/>
</svg>
